<svg id="icons" enable-background="new 0 0 64 64" height="512" viewBox="0 0 64 64" width="512" fill="#575b5659"
     xmlns="http://www.w3.org/2000/svg">
  <path d="m29.03 5c.552 0 1-.447 1-1s-.448-1-1-1h-.01c-.552 0-.994.447-.994 1s.452 1 1.004 1z"/>
  <path d="m32 5h3c.553 0 1-.447 1-1s-.447-1-1-1h-3c-.553 0-1 .447-1 1s.447 1 1 1z"/>
  <path
    d="m44.013.003c-.004 0-.008-.003-.013-.003h-24c-3.309 0-6 2.691-6 6v51c0 3.859 3.141 7 7 7h22c3.859 0 7-3.141 7-7v-50.998c0-3.305-2.685-5.992-5.987-5.999zm-24.013 1.997h23.99c.004 0 .006.002.01.002 2.206 0 4 1.794 4 4h-32v-.002c0-2.206 1.794-4 4-4zm23 56h-11-11c-2.757 0-5-2.243-5-5v-1h16 16v1c0 2.757-2.243 5-5 5zm-27-49.998h32v41.998h-32zm27 53.998h-22c-2.418 0-4.438-1.726-4.9-4.01 1.264 1.241 2.994 2.01 4.9 2.01h22c1.906 0 3.636-.769 4.9-2.01-.462 2.284-2.482 4.01-4.9 4.01z"/>
  <path
    d="m35 55c0-1.654-1.346-3-3-3s-3 1.346-3 3 1.346 3 3 3 3-1.346 3-3zm-3 1c-.552 0-1-.448-1-1s.448-1 1-1 1 .448 1 1-.448 1-1 1z"/>
  <path d="m22 13h20c.553 0 1-.447 1-1s-.447-1-1-1h-20c-.553 0-1 .447-1 1s.447 1 1 1z"/>
  <path d="m38 15c0-.553-.447-1-1-1h-10c-.553 0-1 .447-1 1s.447 1 1 1h10c.553 0 1-.447 1-1z"/>
  <path
    d="m38.003 18c-1.654 0-3 1.346-3 3s1.346 3 3 3h4c1.654 0 3-1.346 3-3s-1.346-3-3-3zm0 2c.552 0 1 .448 1 1s-.448 1-1 1-1-.448-1-1 .448-1 1-1zm4 2h-1.185c.112-.314.185-.647.185-1s-.072-.686-.185-1h1.185c.552 0 1 .448 1 1s-.448 1-1 1z"/>
  <path
    d="m42.001 26h-4c-1.654 0-3 1.346-3 3s1.346 3 3 3h4c1.654 0 3-1.346 3-3s-1.346-3-3-3zm-4 2h1.185c-.112.314-.185.647-.185 1s.072.686.185 1h-1.185c-.552 0-1-.448-1-1s.448-1 1-1zm4 2c-.552 0-1-.448-1-1s.448-1 1-1 1 .448 1 1-.448 1-1 1z"/>
  <path
    d="m42.003 34h-4c-1.654 0-3 1.346-3 3s1.346 3 3 3h4c1.654 0 3-1.346 3-3s-1.346-3-3-3zm-4 2c.552 0 1 .448 1 1s-.448 1-1 1-1-.448-1-1 .448-1 1-1zm4 2h-1.185c.112-.314.185-.647.185-1s-.072-.686-.185-1h1.185c.552 0 1 .448 1 1s-.448 1-1 1z"/>
  <path
    d="m44.001 43.999h-9.186c-.414-1.161-1.513-1.999-2.815-1.999s-2.401.838-2.815 1.999h-9.184c-.553 0-1 .447-1 1s.447 1 1 1h9.183c.414 1.162 1.513 2.001 2.816 2.001s2.402-.839 2.816-2.001h9.185c.553 0 1-.447 1-1s-.447-1-1-1zm-12.001 2.001c-.552 0-1-.448-1-1s.448-1 1-1 1 .448 1 1-.448 1-1 1z"/>
  <path d="m20.001 20.999h11.999c.553 0 1-.447 1-1s-.447-1-1-1h-11.999c-.553 0-1 .447-1 1s.447 1 1 1z"/>
  <path d="m20.001 23.999h5.999c.553 0 1-.447 1-1s-.447-1-1-1h-5.999c-.553 0-1 .447-1 1s.447 1 1 1z"/>
  <path d="m20.001 29h11.999c.553 0 1-.447 1-1s-.447-1-1-1h-11.999c-.553 0-1 .447-1 1s.447 1 1 1z"/>
  <path d="m20.001 32h5.999c.553 0 1-.447 1-1s-.447-1-1-1h-5.999c-.553 0-1 .447-1 1s.447 1 1 1z"/>
  <path d="m20.001 37.001h11.999c.553 0 1-.447 1-1s-.447-1-1-1h-11.999c-.553 0-1 .447-1 1s.447 1 1 1z"/>
  <path d="m20.001 40.001h5.999c.553 0 1-.447 1-1s-.447-1-1-1h-5.999c-.553 0-1 .447-1 1s.447 1 1 1z"/>
</svg>
